# xmcd
#
# Track frame offsets:
#	150
#	16314
#	28615
#	48079
#	61679
#	76825
#	91059
#	108235
#	124148
#	138943
#	155509
#	175410
#
# Disc length: 2508 seconds
#
# Revision: 1
# Processed by: cddbd v1.5.2PL0 Copyright (c) Steve Scherf et al.
# Submitted via: EZCDAudioConverter 8.5.0.1
#
DISCID=8709ca0c
DTITLE=Mud Digger - Mud Digger, Vol. 7
DYEAR=2016
DGENRE=Country
TTITLE0=Colt Ford - Crank It Up [Live]
TTITLE1=Cypress Spring - Drop A Tailgate
TTITLE2=Lenny Cooper Feat. Moonshine Bandits and Young Gunner - Duramax (Remix)
TTITLE3=The Lacs Feat. Ziggy Pockets - Floating
TTITLE4=Trailer Choir Feat. Colt Ford - Ice Cold Summer (Remix)
TTITLE5=Moccasin Creek Feat. Demun Jones - Boys In The Woods
TTITLE6=Moonshine Bandits Feat. Crucifix - Lady Luck
TTITLE7=Twang And Round - Pour Another Round
TTITLE8=Demun Jones Feat. The Lacs and Danny Boone - Give 'Em Hell
TTITLE9=Charlie Farley Feat. Colt Ford and Daniel Lee - Southern Summertime
TTITLE10=I4NI Feat. The Lacs, Moonshine Bandits, Bubba Sparxxx, Redneck Soulje
TTITLE10=rs, Demun Jones and J Rosevelt - How We Roll
TTITLE11=Tommy Chayne - Booze Cruise
EXTD=
EXTT0=
EXTT1=
EXTT2=
EXTT3=
EXTT4=
EXTT5=
EXTT6=
EXTT7=
EXTT8=
EXTT9=
EXTT10=
EXTT11=
PLAYORDER=
